Coordinates
version=1
nRows=6
nColumns=107
inDegrees=yes

Units are S.I. units (second, meters, Newtons, ...)
If the header above contains a line with 'inDegrees', this indicates whether rotational values are in degrees (yes) or radians (no).

endheader
time	sternoclavicular_r2	sternoclavicular_r3	unrotscap_r3	unrotscap_r2	acromioclavicular_r2	acromioclavicular_r3	acromioclavicular_r1	unrothum_r1	unrothum_r3	unrothum_r2	elv_angle	shoulder_elv	shoulder1_r2	shoulder_rot	elbow_flexion	pro_sup	deviation	flexion	proximal_distal_r1	proximal_distal_r3	cmc_flexion	cmc_abduction	mp_flexion	ip_flexion	mcp2_flexion	mcp2_abduction	pm2_flexion	md2_flexion	mcp3_flexion	mcp3_abduction	pm3_flexion	md3_flexion	mcp4_flexion	mcp4_abduction	pm4_flexion	md4_flexion	mcp5_flexion	mcp5_abduction	pm5_flexion	md5_flexion	bicpt_tx	bicpt_ty	bicpt_tz	bicpt2_tx	bicpt2_ty	bicpt2_tz	ptpt_tx	ptpt_ty	ptpt_tz	FCUpt_tx	FCUpt_ty	FCUpt_tz	EDCpt_tx	EDCpt_ty	EDCpt_tz	APLpt_tx	APLpt_ty	APLpt_tz	FPLpt_tx	FPLpt_ty	FPLpt_tz	FPLpt2_tx	FPLpt2_ty	FPLpt2_tz	PEC1pt2_tx	PEC1pt2_ty	PEC1pt2_tz	PEC1pt3_tx	PEC1pt3_ty	PEC1pt3_tz	PEC2pt2_tx	PEC2pt2_ty	PEC2pt2_tz	PEC2pt3_tx	PEC2pt3_ty	PEC2pt3_tz	PEC3pt2_tx	PEC3pt2_ty	PEC3pt2_tz	PEC3pt3_tx	PEC3pt3_ty	PEC3pt3_tz	DELT2pt2a_tx	DELT2pt2a_ty	DELT2pt2a_tz	DELT2pt2_tx	DELT2pt2_ty	DELT2pt2_tz	LAT1pt2_tx	LAT1pt2_ty	LAT1pt2_tz	LAT1pt3_tx	LAT1pt3_ty	LAT1pt3_tz	LAT2pt2_tx	LAT2pt2_ty	LAT2pt2_tz	LAT2pt3_tx	LAT2pt3_ty	LAT2pt3_tz	LAT3pt2_tx	LAT3pt2_ty	LAT3pt2_tz	LAT3pt3_tx	LAT3pt3_ty	LAT3pt3_tz
      1.16666667	     -0.30454215	      0.12898968	     -0.12898968	      0.30454215	     -0.06166359	      0.49834344	      0.22400195	     -0.22400195	     -0.49834344	      0.06166359	    105.16752872	     72.10306009	     -1.83551964	    -51.36447897	     30.76878439	     88.60934281	      0.40064337	     -0.28096740	      0.41234704	     -0.14048370	     -0.45632198	      2.39895013	     -9.03387639	     -0.36002142	     27.68078172	     -3.63442077	     22.28257306	     -7.46629545	     21.27522238	     -8.71005210	     20.79280860	     15.06644487	      6.48621072	    -12.67159000	     31.98150765	     25.17127907	    -13.42843956	    -14.31748829	     44.23702345	      5.17960765	      0.00091774	     -0.03112657	     -0.00486804	      0.01396240	     -0.01855849	     -0.00062442	      0.00100277	     -0.06913355	     -0.00718796	      0.01303880	     -0.18214841	      0.00015823	     -0.01063310	      0.00372226	     -0.00084285	      0.00022138	      0.00008855	      0.00044276	      0.00028336	      0.00085009	      0.00047818	     -0.00001447	      0.00001148	      0.00001377	      0.00236338	      0.00829186	      0.00576825	     -0.00773106	      0.01866670	     -0.01770532	      0.00236338	      0.00829186	      0.00576825	      0.00052074	      0.01730475	     -0.00909300	      0.00379107	      0.00461100	      0.01557153	      0.00000000	      0.00694791	      0.00000000	     -0.00676968	     -0.03128474	     -0.00572378	      0.02529631	     -0.00153343	     -0.02008506	     -0.00084120	      0.01410017	     -0.00576825	      0.00232332	      0.02034910	     -0.01682406	     -0.00564808	      0.01221747	     -0.00516739	     -0.01177684	      0.02579689	     -0.02888131	     -0.02211162	      0.01365954	     -0.00692991	     -0.01466097	      0.02980262	     -0.03609162
      1.20000000	     -0.30457892	      0.12900525	     -0.12900525	      0.30457892	     -0.06167103	      0.49840361	      0.22402899	     -0.22402899	     -0.49840361	      0.06167103	    105.18454616	     72.11176575	     -1.83581665	    -51.35977954	     30.78380510	     88.60720670	      0.40066793	     -0.28100723	      0.41236394	     -0.14050362	     -0.45484557	      2.39817825	     -9.03314918	     -0.35976432	     27.67556402	     -3.63371900	     22.28175673	     -7.46666248	     21.27327078	     -8.71059681	     20.79273339	     15.06648905	      6.48774796	    -12.67191115	     31.98236910	     25.17135455	    -13.42704558	    -14.31784822	     44.23769374	      5.17966167	      0.00091823	     -0.03112829	     -0.00486832	      0.01396263	     -0.01856257	     -0.00062480	      0.00100293	     -0.06913345	     -0.00718779	      0.01303856	     -0.18214848	      0.00015817	     -0.01063284	      0.00372214	     -0.00084278	      0.00022138	      0.00008855	      0.00044276	      0.00028337	      0.00085010	      0.00047818	     -0.00001504	      0.00001149	      0.00001378	      0.00236367	      0.00829286	      0.00576895	     -0.00773199	      0.01866895	     -0.01770746	      0.00236367	      0.00829286	      0.00576895	      0.00052081	      0.01730684	     -0.00909410	      0.00379141	      0.00461155	      0.01557242	      0.00000000	      0.00694960	      0.00000000	     -0.00677050	     -0.03128852	     -0.00572518	      0.02529556	     -0.00153325	     -0.02008194	     -0.00084130	      0.01410187	     -0.00576895	      0.00232360	      0.02035156	     -0.01682609	     -0.00564876	      0.01221895	     -0.00516801	     -0.01177827	      0.02580001	     -0.02888479	     -0.02211429	      0.01366118	     -0.00693075	     -0.01466274	      0.02980622	     -0.03609598
      1.23333333	     -0.30437040	      0.12891694	     -0.12891694	      0.30437040	     -0.06162881	      0.49806240	      0.22387562	     -0.22387562	     -0.49806240	      0.06162881	    105.25997020	     72.06239791	     -1.83713305	    -51.64409998	     30.77371716	     88.58428158	      0.40104057	     -0.29328646	      0.41262518	     -0.14664323	     -0.14364346	      2.16331237	     -7.79827700	     -0.53691797	     27.17512560	     -3.00335269	     23.35621862	     -8.46405746	     21.40818351	     -8.59734874	     21.27203888	     15.35717490	      7.46889908	    -12.70650101	     31.62395983	     26.44255300	    -12.36375940	    -14.32517903	     44.33398584	      5.15303329	      0.00091790	     -0.03112714	     -0.00486813	      0.01396513	     -0.01855983	     -0.00062880	      0.00100462	     -0.06913235	     -0.00718594	      0.01303590	     -0.18214927	      0.00015749	     -0.01063009	      0.00372086	     -0.00084201	      0.00022805	      0.00009122	      0.00045610	      0.00029190	      0.00087571	      0.00049258	     -0.00000411	      0.00000358	      0.00000429	      0.00236205	      0.00828718	      0.00576500	     -0.00772670	      0.01865617	     -0.01769534	      0.00236205	      0.00828718	      0.00576500	      0.00052045	      0.01729499	     -0.00908788	      0.00378947	      0.00460840	      0.01556736	      0.00000000	      0.00694003	      0.00000000	     -0.00676586	     -0.03126710	     -0.00571723	      0.02533990	     -0.00154397	     -0.02027078	     -0.00084073	      0.01409221	     -0.00576500	      0.00232201	      0.02033763	     -0.01681457	     -0.00564489	      0.01221058	     -0.00516448	     -0.01177020	      0.02578235	     -0.02886502	     -0.02209915	      0.01365183	     -0.00692600	     -0.01465270	      0.02978582	     -0.03607126
      1.26666667	     -0.30431937	      0.12889532	     -0.12889532	      0.30431937	     -0.06161848	      0.49797889	      0.22383808	     -0.22383808	     -0.49797889	      0.06161848	    105.27065609	     72.05031506	     -1.83731955	    -51.64274294	     30.77894945	     88.58152388	      0.40105498	     -0.29327803	      0.41263523	     -0.14663902	     -0.14173140	      2.16135102	     -7.79750465	     -0.53652754	     27.17273411	     -3.00291088	     23.35600732	     -8.46376719	     21.40901658	     -8.59739969	     21.27244279	     15.35735484	      7.47349730	    -12.70744275	     31.62618697	     26.44268324	    -12.36213343	    -14.32558952	     44.33489431	      5.15313086	      0.00091807	     -0.03112774	     -0.00486823	      0.01396544	     -0.01856125	     -0.00062929	      0.00100482	     -0.06913222	     -0.00718572	      0.01303559	     -0.18214937	      0.00015741	     -0.01062976	      0.00372071	     -0.00084192	      0.00022803	      0.00009121	      0.00045607	      0.00029188	      0.00087565	      0.00049255	     -0.00000438	      0.00000355	      0.00000427	      0.00236165	      0.00828579	      0.00576403	     -0.00772540	      0.01865304	     -0.01769237	      0.00236165	      0.00828579	      0.00576403	      0.00052036	      0.01729209	     -0.00908635	      0.00378899	      0.00460762	      0.01556612	      0.00000000	      0.00693769	      0.00000000	     -0.00676473	     -0.03126186	     -0.00571528	      0.02533962	     -0.00154392	     -0.02026990	     -0.00084059	      0.01408985	     -0.00576403	      0.00232162	      0.02033422	     -0.01681175	     -0.00564395	      0.01220854	     -0.00516361	     -0.01176823	      0.02577802	     -0.02886018	     -0.02209545	      0.01364954	     -0.00692484	     -0.01465024	      0.02978082	     -0.03606522
      1.30000000	     -0.30424620	      0.12886433	     -0.12886433	      0.30424620	     -0.06160367	      0.49785916	      0.22378426	     -0.22378426	     -0.49785916	      0.06160367	    105.22129133	     72.03299107	     -1.83645798	    -51.58273483	     30.86099096	     88.63550428	      0.40182195	     -0.28693567	      0.41317243	     -0.14346783	      0.17134737	      1.40555723	     -7.43654065	      0.47842972	     26.36525236	     -2.55581621	     23.85405622	     -5.48782912	     21.04824343	     -8.39435403	     22.27741865	     15.86107947	      7.36261723	    -12.81610717	     34.22871739	     23.95599244	    -12.26982139	    -14.33161461	     45.53675910	      5.15842416	      0.00092079	     -0.03113714	     -0.00486974	      0.01395953	     -0.01858354	     -0.00061985	      0.00100084	     -0.06913480	     -0.00719007	      0.01304183	     -0.18214750	      0.00015900	     -0.01063624	      0.00372371	     -0.00084373	      0.00022464	      0.00008986	      0.00044928	      0.00028754	      0.00086262	      0.00048523	      0.00000502	     -0.00000427	     -0.00000513	      0.00236108	      0.00828380	      0.00576264	     -0.00772354	      0.01864856	     -0.01768812	      0.00236108	      0.00828380	      0.00576264	      0.00052024	      0.01728793	     -0.00908417	      0.00378831	      0.00460652	      0.01556435	      0.00000000	      0.00693433	      0.00000000	     -0.00676310	     -0.03125434	     -0.00571250	      0.02533037	     -0.00154166	     -0.02023001	     -0.00084039	      0.01408646	     -0.00576264	      0.00232107	      0.02032933	     -0.01680771	     -0.00564259	      0.01220560	     -0.00516237	     -0.01176540	      0.02577183	     -0.02885324	     -0.02209014	      0.01364626	     -0.00692318	     -0.01464672	      0.02977366	     -0.03605654
      1.33333333	     -0.30417020	      0.12883214	     -0.12883214	      0.30417020	     -0.06158828	      0.49773481	      0.22372837	     -0.22372837	     -0.49773481	      0.06158828	    105.22904298	     72.01499929	     -1.83659327	    -51.57802849	     30.85819632	     88.63466174	      0.40180252	     -0.28690277	      0.41315851	     -0.14345138	      0.17232266	      1.40510231	     -7.43617803	      0.47856054	     26.36665197	     -2.55538635	     23.85428638	     -5.48757268	     21.04980918	     -8.39430435	     22.27769705	     15.86115620	      7.36460760	    -12.81625726	     34.22966511	     23.95612310	    -12.26853282	    -14.33168131	     45.53737237	      5.15846985	      0.00092069	     -0.03113682	     -0.00486969	      0.01395963	     -0.01858278	     -0.00061999	      0.00100090	     -0.06913476	     -0.00719000	      0.01304173	     -0.18214753	      0.00015898	     -0.01063613	      0.00372367	     -0.00084370	      0.00022461	      0.00008984	      0.00044922	      0.00028750	      0.00086250	      0.00048515	      0.00000496	     -0.00000429	     -0.00000515	      0.00236049	      0.00828173	      0.00576120	     -0.00772161	      0.01864390	     -0.01768370	      0.00236049	      0.00828173	      0.00576120	      0.00052011	      0.01728361	     -0.00908190	      0.00378760	      0.00460537	      0.01556250	      0.00000000	      0.00693085	      0.00000000	     -0.00676141	     -0.03124653	     -0.00570960	      0.02532964	     -0.00154148	     -0.02022688	     -0.00084018	      0.01408295	     -0.00576120	      0.00232049	      0.02032425	     -0.01680351	     -0.00564118	      0.01220255	     -0.00516108	     -0.01176246	      0.02576539	     -0.02884603	     -0.02208462	      0.01364285	     -0.00692145	     -0.01464306	      0.02976622	     -0.03604754
